<?xml version="1.0" standalone="no"?>
<!DOCTYPE svg PUBLIC "-//W3C//DTD SVG 20010904//EN"
 "http://www.w3.org/TR/2001/REC-SVG-20010904/DTD/svg10.dtd">
<svg version="1.0" xmlns="http://www.w3.org/2000/svg"
 width="512.000000pt" height="512.000000pt" viewBox="0 0 512.000000 512.000000"
 preserveAspectRatio="xMidYMid meet">
<metadata>
Created by potrace 1.11, written by Peter Selinger 2001-2013
</metadata>
<g transform="translate(0.000000,512.000000) scale(0.100000,-0.100000)"
fill="#000000" stroke="none">
<path d="M1066 5060 c-84 -75 -181 -359 -221 -650 -3 -25 -8 -56 -10 -70 -2
-14 -7 -52 -10 -85 -4 -33 -9 -73 -11 -90 -23 -189 -23 -678 1 -815 2 -14 7
-43 10 -65 12 -81 17 -110 22 -118 11 -18 -11 -48 -58 -77 -126 -81 -283 -226
-381 -350 -32 -41 -62 -80 -67 -86 -34 -42 -125 -209 -159 -290 -69 -168 -99
-286 -117 -469 l-6 -60 28 35 c91 114 247 221 392 271 30 11 53 17 50 15 -2
-2 -31 -24 -64 -48 -232 -172 -388 -394 -446 -638 -15 -59 -19 -304 -6 -317 5
-4 23 9 40 28 73 82 190 168 330 244 l89 47 -52 -76 c-28 -42 -71 -118 -96
-167 -46 -92 -118 -294 -129 -359 -3 -19 -10 -60 -15 -91 -21 -116 -35 -353
-21 -347 5 2 35 37 68 78 81 102 179 202 296 299 53 44 99 81 102 81 2 0 -4
-20 -15 -44 -33 -77 -79 -230 -99 -332 -30 -149 -31 -158 -37 -304 -3 -74 -7
-144 -9 -154 -5 -23 0 -18 60 69 145 209 364 419 560 537 180 108 391 189 549
213 21 3 41 7 45 9 25 16 56 -39 239 -414 54 -109 177 -230 292 -287 193 -94
232 -106 351 -106 87 0 174 19 239 53 19 10 62 31 95 46 143 68 253 180 327
334 110 230 179 357 201 371 5 4 23 3 40 -2 17 -5 47 -11 67 -14 77 -11 235
-64 345 -116 258 -120 546 -367 705 -604 19 -27 37 -52 40 -55 4 -3 12 -14 19
-25 10 -16 11 9 7 125 -3 80 -7 156 -10 170 -2 14 -10 59 -16 100 -6 41 -16
89 -21 107 -6 17 -12 44 -15 58 -7 38 -58 185 -78 223 -23 44 -20 46 17 21
103 -71 265 -228 367 -356 35 -43 66 -81 70 -86 8 -10 6 136 -4 238 -26 259
-120 528 -256 731 l-50 74 68 -34 c107 -54 243 -150 316 -222 37 -37 69 -64
73 -61 3 3 6 57 8 119 3 102 -1 135 -30 259 -8 37 -68 171 -101 225 -72 120
-212 268 -334 355 -68 48 -69 51 -10 31 150 -52 288 -147 390 -269 l31 -38 -6
65 c-5 54 -14 120 -20 140 -1 3 -5 25 -9 50 -33 193 -164 464 -315 655 -87
109 -253 260 -373 339 -31 21 -59 44 -62 51 -2 7 4 63 14 124 38 225 45 651
15 905 -2 17 -6 58 -10 90 -36 358 -139 709 -235 801 -24 23 -34 26 -64 21
-77 -15 -263 -184 -396 -361 -66 -88 -139 -216 -169 -297 -8 -20 -23 -41 -35
-47 -92 -46 -495 -191 -572 -204 -16 -3 -62 -13 -103 -22 -41 -9 -98 -17 -127
-19 -149 -8 -424 64 -752 197 l-134 54 -32 74 c-45 103 -78 158 -159 268 -104
139 -253 286 -338 333 -72 40 -76 40 -113 8z"/>
</g>
</svg>
